<?xml version="1.0" standalone="no"?>
<!DOCTYPE svg PUBLIC "-//W3C//DTD SVG 20010904//EN"
 "http://www.w3.org/TR/2001/REC-SVG-20010904/DTD/svg10.dtd">
<svg version="1.0" xmlns="http://www.w3.org/2000/svg"
 width="875.000000pt" height="1110.000000pt" viewBox="0 0 875.000000 1110.000000"
 preserveAspectRatio="xMidYMid meet">
<metadata>
Created by potrace 1.16, written by Peter Selinger 2001-2019
</metadata>
<g transform="translate(0.000000,1110.000000) scale(0.100000,-0.100000)"
fill="#000000" stroke="none">
<path d="M4033 9669 c-6 -6 -49 -10 -101 -10 -50 0 -94 -4 -97 -9 -3 -6 -28
-10 -54 -10 -26 0 -51 -3 -55 -7 -17 -17 -88 -33 -166 -38 -148 -9 -311 -28
-316 -37 -3 -4 -23 -8 -44 -8 -21 0 -42 -4 -45 -10 -3 -5 -19 -10 -35 -10 -15
0 -48 -10 -72 -21 -23 -12 -52 -25 -63 -29 -29 -9 -135 -59 -165 -77 -14 -8
-33 -17 -42 -20 -10 -3 -18 -9 -18 -14 0 -5 -5 -9 -11 -9 -7 0 -34 -16 -60
-35 -27 -19 -52 -35 -55 -35 -7 0 -118 -76 -135 -93 -8 -7 -36 -28 -64 -47
-27 -19 -59 -42 -69 -52 -11 -10 -24 -18 -29 -18 -4 0 -15 -6 -22 -12 -35 -31
-45 -38 -59 -38 -8 0 -16 -3 -18 -8 -1 -4 -23 -23 -48 -41 -95 -72 -281 -279
-377 -419 -28 -40 -32 -56 -33 -110 0 -34 -7 -78 -14 -97 -8 -19 -13 -35 -11
-35 3 0 -9 -13 -26 -30 -28 -26 -37 -29 -73 -24 -22 4 -49 11 -60 16 -48 25
-106 -55 -106 -146 0 -51 31 -175 50 -201 4 -5 15 -55 24 -110 10 -55 20 -111
22 -125 3 -14 10 -151 15 -305 11 -370 13 -381 68 -494 15 -31 35 -85 45 -121
10 -35 24 -73 31 -84 8 -12 15 -34 18 -51 2 -16 7 -39 11 -50 5 -11 10 -26 12
-33 2 -7 8 -11 13 -8 5 3 7 -23 6 -59 -2 -47 1 -65 10 -65 7 0 15 -18 19 -40
3 -22 11 -40 17 -40 6 0 8 -9 4 -19 -3 -11 -1 -28 6 -39 13 -21 5 -57 -10 -48
-23 15 -33 -27 -32 -131 1 -60 2 -118 2 -131 -1 -13 3 -21 7 -18 4 2 8 -3 9
-12 1 -9 4 -33 7 -52 4 -19 6 -44 7 -55 0 -11 5 -22 11 -26 6 -4 11 -18 11
-33 0 -14 3 -26 8 -26 5 0 6 -7 2 -15 -3 -9 2 -24 11 -34 9 -10 14 -25 11 -34
-4 -8 -1 -18 4 -22 6 -3 9 -10 6 -15 -3 -5 -1 -11 4 -14 5 -3 7 -15 4 -26 -3
-11 -1 -20 4 -20 6 0 11 -12 11 -27 2 -36 6 -55 14 -68 3 -5 9 -29 13 -51 3
-23 15 -51 26 -63 11 -11 17 -21 14 -21 -6 0 52 -90 65 -100 11 -10 70 -88 70
-93 0 -4 10 -21 23 -40 13 -19 36 -61 53 -93 16 -32 52 -82 81 -110 48 -48 57
-53 123 -64 66 -11 76 -16 120 -61 28 -28 56 -69 66 -96 10 -27 21 -50 24 -53
22 -18 74 -327 74 -445 0 -87 -3 -110 -29 -178 -27 -72 -28 -80 -17 -124 7
-26 26 -75 42 -108 32 -68 46 -131 36 -170 -4 -14 -21 -40 -39 -59 -34 -36
-179 -136 -197 -136 -5 0 -10 -4 -10 -10 0 -5 -6 -10 -13 -10 -7 0 -24 -10
-38 -22 -39 -36 -66 -48 -103 -48 -19 0 -38 -4 -41 -10 -3 -5 -22 -10 -41 -10
-19 0 -33 -3 -31 -7 3 -5 -6 -9 -20 -10 -32 -1 -153 -52 -153 -64 0 -5 -8 -9
-17 -9 -22 -1 -55 -25 -46 -33 3 -4 -10 -7 -30 -7 -26 0 -39 -6 -47 -20 -6
-11 -16 -20 -23 -20 -7 0 -6 4 3 10 8 5 11 10 5 10 -5 0 -23 -11 -39 -25 -16
-13 -32 -22 -36 -20 -5 3 -10 0 -12 -7 -2 -6 -15 -13 -28 -15 -13 -2 -28 -9
-32 -16 -4 -6 -8 -8 -8 -3 0 6 -5 5 -11 -1 -6 -6 -18 -9 -26 -6 -9 4 -16 -2
-20 -16 -3 -12 -13 -21 -25 -21 -10 0 -16 4 -13 10 6 10 -84 -36 -173 -89 -29
-17 -57 -31 -62 -31 -4 0 -10 -4 -12 -8 -4 -10 -136 -75 -188 -92 -34 -12 -58
-21 -102 -39 -13 -5 -54 -15 -93 -21 -55 -9 -84 -20 -139 -56 -37 -25 -89 -57
-115 -71 -80 -45 -84 -48 -110 -68 -61 -49 -100 -88 -96 -95 2 -4 -11 -19 -30
-35 -19 -15 -35 -33 -35 -41 0 -8 -4 -14 -9 -14 -5 0 -11 -9 -14 -21 -4 -13
-10 -18 -18 -13 -7 4 -10 3 -5 -4 13 -21 -63 -69 -147 -91 -45 -12 -95 -23
-112 -25 -34 -3 -87 -29 -105 -51 -6 -7 -17 -12 -25 -9 -7 3 -16 1 -19 -5 -4
-6 -13 -8 -21 -4 -13 4 -15 -124 -15 -1030 l0 -1035 32 15 c18 9 35 19 38 23
3 3 26 16 52 28 26 12 71 37 100 55 29 19 75 44 101 58 27 13 59 30 73 37 13
7 29 10 34 7 18 -11 10 -33 -17 -48 -76 -38 -150 -80 -164 -93 -8 -8 -21 -14
-29 -14 -28 0 -220 -127 -220 -145 0 -13 221 -15 1763 -15 l1762 1 33 33 c22
22 56 40 100 54 85 27 194 52 226 52 14 0 31 9 39 20 7 10 22 18 33 18 10 -1
42 9 69 22 40 20 67 24 135 25 133 0 360 -43 465 -90 17 -7 50 -20 75 -30 25
-9 83 -37 129 -61 l85 -44 1918 0 1918 0 0 683 c-1 556 -3 678 -13 659 -16
-27 -27 -19 -27 20 0 16 -4 38 -10 48 -7 13 -6 19 4 23 14 5 11 53 -3 62 -11
6 -7 -39 4 -47 6 -5 6 -8 -2 -8 -11 0 -41 52 -47 82 -3 15 -23 63 -39 93 -9
18 -8 19 6 6 15 -12 17 -11 17 3 0 9 -5 16 -11 16 -5 0 -7 5 -4 10 3 6 1 10
-5 10 -6 0 -9 4 -6 9 4 5 -3 7 -14 4 -12 -3 -20 0 -20 6 0 7 5 9 10 6 6 -3 10
-1 10 4 0 6 -4 11 -8 11 -5 0 -14 10 -21 23 -6 12 -9 14 -7 5 6 -22 -10 -24
-18 -3 -3 8 -12 15 -21 15 -8 0 -23 8 -33 17 -10 10 -29 28 -43 40 -13 12 -36
34 -51 50 -15 15 -58 55 -97 88 -65 56 -86 85 -60 85 5 0 7 -5 3 -12 -5 -7 -3
-8 5 -3 9 5 10 10 2 18 -8 8 -14 8 -23 -1 -7 -7 -16 -12 -22 -12 -5 0 -6 3 -3
7 4 3 2 12 -4 19 -8 9 -6 12 8 10 10 -2 12 -1 6 1 -7 3 -13 10 -13 16 -1 7 -6
2 -13 -10 -12 -22 -13 -22 -25 -3 -10 16 -9 18 3 14 35 -14 4 31 -35 50 -8 4
-6 0 5 -9 13 -11 14 -16 5 -13 -8 2 -19 14 -25 26 -10 22 -32 25 -27 3 1 -6
-3 -11 -9 -11 -7 0 -9 9 -5 24 4 18 1 25 -14 29 -14 4 -20 0 -20 -11 -1 -15
-2 -14 -12 2 -19 33 -41 55 -50 50 -4 -3 -11 2 -14 10 -3 9 -13 16 -21 16 -8
0 -11 5 -8 10 5 9 -16 15 -38 11 -5 -1 -6 3 -3 8 5 8 -14 21 -30 20 -3 0 -15
12 -26 26 -16 21 -26 25 -46 20 -22 -5 -24 -4 -12 10 11 13 10 14 -5 9 -14 -6
-16 -4 -10 6 5 9 4 11 -3 6 -7 -4 -23 4 -36 17 -14 14 -28 22 -31 19 -4 -4
-11 1 -16 11 -6 9 -17 17 -24 17 -8 0 -15 5 -15 12 0 6 -3 9 -6 6 -3 -3 -17 5
-31 18 -14 13 -32 24 -38 24 -7 0 -16 7 -19 16 -3 8 -10 13 -15 10 -5 -3 -12
1 -15 10 -3 8 -11 14 -18 13 -27 -3 -39 1 -32 13 5 8 2 9 -10 5 -10 -4 -19 -1
-22 7 -3 7 -17 14 -31 14 -14 0 -29 6 -34 13 -5 8 -9 10 -9 5 0 -5 -6 -3 -13
3 -8 6 -17 8 -20 4 -4 -3 -9 1 -13 10 -3 9 -12 13 -20 10 -7 -3 -17 2 -20 11
-3 9 -10 13 -15 10 -5 -3 -9 -1 -9 5 0 11 -110 65 -172 85 -20 6 -24 -4 -7
-21 6 -6 8 -16 4 -23 -12 -19 -37 10 -31 36 6 24 -13 38 -41 27 -10 -4 -14 -2
-10 4 4 6 0 14 -9 17 -24 9 -31 7 -14 -4 9 -6 10 -10 3 -10 -6 0 -15 5 -18 10
-3 6 -15 10 -26 10 -13 0 -18 4 -13 12 4 6 3 8 -4 5 -12 -8 -44 2 -37 12 2 4
-2 8 -10 8 -8 0 -12 -4 -9 -9 3 -4 -6 -3 -20 4 -14 6 -26 15 -26 20 0 5 -6 8
-12 7 -7 -1 -22 -1 -33 0 -15 1 -17 3 -6 10 11 7 9 11 -8 20 -11 7 -21 8 -21
4 0 -4 -4 -2 -9 6 -5 7 -20 14 -35 14 -14 0 -24 2 -22 6 3 4 -13 6 -35 6 -31
0 -39 3 -39 18 0 10 -4 16 -9 13 -5 -4 -12 0 -14 6 -3 8 -6 5 -6 -5 -1 -14 -6
-17 -23 -11 -56 17 -80 32 -201 125 -15 12 -47 31 -70 43 -23 11 -47 25 -54
32 -7 6 -32 15 -57 18 -25 4 -48 11 -51 17 -4 5 -13 9 -21 9 -9 0 -41 19 -72
43 -64 48 -153 92 -173 85 -8 -3 6 -17 33 -36 98 -67 134 -141 119 -243 -13
-90 -81 -242 -142 -320 -16 -20 -29 -44 -29 -52 0 -8 -7 -18 -16 -21 -8 -3
-13 -10 -10 -15 3 -5 -1 -14 -9 -21 -8 -7 -15 -17 -15 -23 0 -5 -15 -26 -32
-46 -62 -71 -78 -91 -78 -102 0 -5 -4 -7 -10 -4 -5 3 -10 3 -10 -2 0 -17 -48
-63 -66 -63 -16 0 -17 -2 -4 -10 12 -8 12 -10 -5 -10 -20 -1 -55 -22 -55 -33
0 -4 8 -4 18 0 12 4 10 0 -6 -15 -13 -11 -23 -23 -22 -26 5 -20 -11 -30 -43
-29 -20 1 -40 -4 -44 -10 -4 -6 0 -8 10 -4 15 6 18 3 17 -20 -1 -5 -10 -7 -20
-5 -15 2 -20 -3 -20 -17 0 -12 -4 -21 -10 -21 -5 0 -25 -14 -45 -31 -20 -18
-38 -29 -42 -25 -3 3 -12 -3 -20 -14 -8 -11 -21 -20 -29 -20 -8 0 -13 -4 -10
-9 7 -11 -81 -67 -134 -86 -24 -8 -60 -15 -81 -15 -21 0 -100 -16 -176 -36
-76 -20 -154 -37 -173 -39 -19 -1 -35 -4 -35 -5 0 -1 -22 -4 -50 -6 -27 -2
-86 -15 -130 -28 -55 -17 -106 -25 -163 -25 l-83 -1 3 27 c2 21 10 29 38 36
19 4 52 22 72 38 20 16 48 29 63 29 14 0 28 7 31 15 4 8 11 15 16 15 6 0 33
14 60 30 26 17 55 30 62 30 8 0 16 4 18 10 2 5 39 32 83 59 44 28 87 56 95 64
8 8 36 26 63 41 26 16 47 31 47 36 0 4 17 15 38 23 21 8 43 22 50 29 6 8 34
25 62 38 27 13 50 27 50 31 0 5 17 16 38 26 39 18 152 102 152 113 0 3 20 20
45 38 25 17 45 38 45 46 0 8 16 24 35 36 19 12 35 28 35 35 0 8 13 23 30 35
24 17 30 29 30 56 0 22 4 33 10 29 20 -12 39 15 33 46 -3 18 2 44 16 74 11 24
21 54 21 66 0 11 5 29 11 40 9 17 39 243 39 289 -1 13 -2 13 -9 0 -5 -8 -14
-60 -20 -115 -24 -209 -59 -318 -108 -336 -15 -6 -41 -28 -58 -51 -36 -48
-255 -268 -268 -268 -5 0 -28 -16 -51 -35 -24 -19 -49 -35 -57 -35 -8 0 -27
-11 -43 -25 -16 -14 -46 -29 -66 -35 -20 -5 -45 -18 -55 -28 -28 -25 -105 -63
-115 -57 -5 3 -14 -4 -20 -15 -6 -11 -15 -18 -20 -15 -22 14 -59 -7 -66 -38
-7 -31 -25 -57 -41 -57 -5 0 -22 -14 -38 -30 -16 -17 -34 -30 -40 -30 -7 0
-30 -13 -51 -28 -21 -15 -59 -38 -84 -50 -25 -12 -52 -26 -60 -31 -8 -5 -35
-19 -60 -31 -56 -27 -124 -64 -153 -83 -12 -8 -38 -17 -58 -21 -34 -6 -37 -4
-43 21 -6 27 -48 63 -175 149 -25 17 -55 41 -65 53 -11 11 -25 21 -31 21 -7 0
-31 20 -54 45 -38 41 -52 63 -33 51 11 -7 42 30 42 49 0 8 5 15 11 15 7 0 9
10 7 25 -4 17 0 29 10 34 24 13 24 92 1 98 -10 3 -15 11 -12 18 3 10 11 11 30
4 14 -5 34 -7 44 -4 14 5 19 1 19 -11 0 -13 3 -15 11 -7 7 7 1 20 -20 44 -35
38 -38 47 -16 55 8 4 15 17 15 30 0 31 67 104 79 85 6 -8 10 -9 12 -2 2 6 25
11 51 12 30 2 49 7 52 16 3 8 1 11 -4 8 -6 -3 -10 0 -10 8 0 7 7 14 15 15 8 1
22 3 30 4 8 1 15 9 15 19 0 12 6 16 20 12 12 -3 21 0 22 8 0 8 2 21 2 29 1 8
7 14 14 12 7 -1 12 5 12 14 0 9 5 12 12 8 7 -5 9 -2 5 9 -3 8 1 21 9 28 8 7
13 18 10 25 -5 13 14 24 44 24 10 0 20 5 22 11 3 9 9 9 25 0 17 -8 24 -8 29 1
4 6 2 14 -4 16 -7 2 -12 10 -12 18 0 10 5 12 13 7 19 -12 47 -14 47 -4 0 6 -4
12 -9 15 -12 8 -19 76 -8 76 11 0 30 19 45 45 11 19 11 19 12 -3 0 -13 4 -21
9 -18 12 8 2 46 -13 46 -6 0 -12 9 -13 20 -1 11 2 20 8 20 5 0 9 7 9 16 0 8 4
12 10 9 6 -3 10 -2 10 4 0 5 16 19 36 32 31 19 40 20 57 10 15 -10 21 -10 27
-1 6 10 16 9 41 -4 21 -11 35 -13 37 -6 5 13 39 13 47 0 3 -5 32 -8 64 -7 33
1 58 4 56 8 -7 10 88 43 119 41 l31 -2 -33 14 c-18 9 -39 13 -46 10 -8 -3 -17
0 -22 7 -4 7 -2 15 4 17 7 2 12 11 12 20 0 12 3 13 12 4 16 -16 28 -15 28 3 0
7 8 19 18 24 9 6 14 11 10 12 -5 1 -12 3 -18 4 -5 1 -19 3 -30 4 -15 1 -20 8
-20 30 0 24 3 28 20 24 27 -7 26 16 -2 26 l-22 8 24 6 c31 8 40 1 40 -29 0
-25 9 -30 26 -15 16 14 98 31 108 21 11 -11 36 -2 36 14 0 6 9 18 19 26 11 7
18 17 15 21 -7 12 -54 -15 -49 -28 7 -20 -13 -25 -38 -9 -12 9 -33 17 -45 19
-12 2 -28 9 -35 16 -10 11 -7 13 16 9 15 -3 27 -1 27 3 0 5 24 10 53 10 28 1
42 4 29 6 -16 3 -22 9 -18 20 3 8 6 19 6 24 0 6 5 7 11 3 37 -23 108 7 96 40
-4 9 -3 15 1 15 20 -3 32 2 27 11 -3 6 14 19 39 30 25 10 46 23 46 28 0 6 9
12 20 15 23 6 27 27 6 27 -8 0 -18 5 -22 12 -5 8 2 9 26 5 27 -6 36 -3 48 14
7 11 25 24 39 30 25 9 23 29 -3 29 -15 0 -19 18 -6 35 14 19 71 45 77 36 8
-14 55 8 55 25 0 19 -17 26 -24 9 -11 -30 -26 -14 -25 28 1 23 4 32 6 20 2
-13 10 -23 18 -23 12 0 45 57 45 79 0 7 11 23 23 37 l24 25 6 -122 c4 -67 7
-190 7 -273 0 -218 9 -314 29 -321 13 -4 16 -15 14 -43 -3 -34 -2 -35 8 -12 6
14 8 52 5 89 -5 50 -3 61 7 53 11 -9 66 -16 106 -13 20 1 -6 31 -28 31 -30 0
-79 77 -85 134 -21 210 -26 558 -7 564 6 2 11 14 11 26 0 12 6 30 14 41 7 11
13 27 14 35 0 8 3 26 7 40 4 14 7 30 7 37 1 7 8 15 16 18 8 3 12 12 8 20 -3 8
-1 17 5 20 5 4 7 11 4 16 -4 5 -1 9 5 9 7 0 10 7 6 15 -3 8 0 15 6 15 6 0 8 3
5 7 -4 3 -2 12 4 20 12 13 14 23 24 98 3 21 10 44 15 50 5 6 9 20 9 30 -2 39
14 140 22 151 5 6 9 22 9 35 0 13 3 42 6 64 2 22 5 47 6 55 0 8 5 20 10 26 4
7 8 25 8 40 -1 57 9 126 20 139 6 7 10 17 9 21 -1 5 0 11 1 14 1 3 4 19 6 35
3 17 9 34 15 40 5 5 9 13 9 18 0 5 -9 -2 -21 -17 -17 -22 -24 -24 -35 -15 -24
20 -33 -1 -39 -101 -13 -192 -80 -488 -136 -603 -16 -32 -29 -65 -29 -73 0 -8
-9 -34 -20 -56 -11 -23 -20 -50 -20 -60 0 -10 -5 -17 -11 -15 -6 1 -20 -13
-31 -32 -23 -41 -133 -151 -151 -151 -7 0 -18 5 -24 11 -7 7 -10 1 -9 -22 1
-20 -4 -34 -13 -37 -10 -3 -12 1 -9 16 4 13 1 20 -5 19 -6 -1 -13 8 -15 20 -4
29 -32 30 -32 2 0 -31 -22 -49 -45 -37 -16 9 -17 8 -11 -16 5 -21 3 -26 -13
-26 -10 0 -19 6 -18 13 1 36 -4 57 -13 52 -5 -3 -10 -18 -10 -32 0 -22 -4 -25
-25 -21 -19 4 -25 1 -25 -12 0 -10 -7 -20 -15 -24 -15 -5 -45 18 -45 35 0 11
-48 35 -55 27 -9 -9 7 -38 21 -38 8 0 14 -7 14 -15 0 -32 -48 14 -55 53 -6 31
-9 34 -15 17 -5 -11 -6 -30 -3 -43 4 -16 1 -22 -12 -22 -11 0 -15 6 -11 18 4
12 -2 26 -15 38 -26 23 -32 22 -40 -8 -3 -14 -12 -22 -23 -21 -9 0 -15 -1 -12
-4 8 -8 -21 -33 -37 -33 -22 0 -29 -29 -12 -53 20 -28 19 -43 -1 -26 -13 10
-17 10 -24 0 -5 -9 -9 -10 -14 -2 -7 11 -108 7 -127 -5 -5 -3 -9 4 -9 16 0 12
-4 19 -9 16 -5 -4 -11 -2 -13 4 -1 5 -27 11 -56 12 -51 3 -53 4 -48 28 2 14 8
33 12 43 6 15 3 17 -20 11 -15 -3 -26 -2 -26 4 0 5 -11 9 -25 8 -19 -1 -23 -5
-19 -18 3 -12 0 -18 -10 -18 -9 0 -16 8 -16 18 0 10 -5 23 -12 30 -13 13 -18
33 -19 77 0 17 -5 39 -11 51 -7 15 -5 31 6 57 8 21 11 37 5 37 -5 0 -9 14 -9
31 0 20 4 28 12 23 8 -5 9 0 6 14 -4 12 -2 22 3 22 5 0 15 11 21 25 9 19 9 28
0 37 -7 7 -12 17 -12 22 0 6 5 5 11 -1 6 -6 18 -9 25 -6 8 3 14 0 14 -6 0 -6
9 -11 21 -11 12 0 17 -4 13 -11 -3 -6 6 -3 22 7 15 11 25 13 21 6 -5 -6 -4
-12 1 -12 14 0 23 46 16 75 -7 29 10 34 25 8 6 -10 11 -13 11 -6 0 6 -4 14 -9
17 -10 7 -3 44 11 62 5 7 4 23 -2 38 -5 14 -7 26 -3 26 3 0 -1 8 -10 18 -25
27 -31 67 -13 85 12 11 13 18 5 23 -7 4 -16 -1 -21 -10 -9 -16 -11 -16 -24 1
-9 11 -13 13 -12 4 2 -8 -9 -17 -24 -22 -19 -5 -28 -4 -28 4 0 7 -4 6 -10 -3
-5 -8 -11 -12 -14 -10 -4 5 -9 63 -7 88 1 17 51 4 69 -17 12 -14 13 -13 9 7
-3 12 -1 20 3 17 5 -3 13 3 19 12 9 16 10 16 11 -5 0 -13 4 -21 9 -18 5 3 7
15 4 25 -3 13 4 24 26 37 19 11 30 25 29 36 -2 9 1 16 5 15 5 -1 16 11 24 26
10 21 20 27 34 24 11 -3 19 0 19 8 0 8 17 13 50 14 28 0 50 -3 50 -8 0 -4 7
-8 15 -8 8 0 12 4 9 9 -6 10 -2 10 56 -1 33 -7 49 -6 64 5 24 17 58 18 72 4 8
-8 15 -6 23 4 7 8 19 12 27 9 20 -7 18 4 -6 29 -10 12 -17 24 -15 28 8 12 -55
72 -70 66 -8 -3 -18 1 -23 9 -4 8 -21 16 -37 17 -16 2 -38 11 -47 20 -22 22
-42 24 -35 4 4 -10 0 -14 -13 -13 -11 1 -22 8 -25 15 -4 10 -14 13 -33 9 -32
-6 -54 4 -50 23 4 16 -78 63 -112 64 -14 1 -24 6 -23 13 2 6 -5 12 -15 12 -36
0 -87 17 -74 24 6 5 12 18 12 30 0 18 2 19 10 7 5 -8 10 -10 10 -4 0 7 -13 26
-30 44 -16 18 -30 40 -30 49 0 9 -4 21 -9 26 -13 14 -40 135 -34 152 3 7 0 13
-6 13 -6 0 -11 6 -11 14 0 8 -4 16 -9 18 -10 3 -14 22 -12 51 1 25 54 45 98
38 41 -7 56 -30 25 -38 -30 -7 -23 -39 14 -73 27 -24 48 -30 74 -20 3 1 8 2
13 1 4 0 7 4 7 9 0 6 5 10 11 10 6 0 18 7 26 16 13 12 13 18 4 24 -7 4 -12 10
-12 14 1 3 0 8 0 11 -5 20 -3 65 4 65 4 0 7 5 7 11 0 5 -4 7 -10 4 -5 -3 -10
1 -10 9 0 8 -16 22 -34 31 -32 16 -79 17 -181 5 -40 -5 -55 0 -55 19 0 11 5
23 10 26 18 11 11 23 -10 18 -13 -3 -22 1 -26 12 -7 17 -8 17 -20 1 -13 -19
-22 -11 -30 26 -10 45 -14 103 -5 90 7 -11 9 -11 14 2 3 8 2 16 -4 18 -6 2 -4
22 5 52 15 49 13 69 -9 96 -7 8 -15 33 -17 56 -3 23 -9 47 -13 54 -5 8 -8 33
-6 57 1 24 -2 43 -8 43 -5 0 -7 9 -4 20 3 11 1 20 -3 20 -5 0 -9 24 -9 53 0
28 -4 55 -10 59 -11 8 -14 79 -3 72 15 -10 20 20 5 31 -20 14 -12 25 19 25 51
0 95 -77 255 -449 34 -79 56 -115 94 -155 66 -67 168 -130 196 -121 14 5 19 3
15 -4 -5 -7 -1 -9 8 -5 9 3 16 10 16 15 0 5 9 9 20 9 13 0 18 -5 14 -15 -5
-11 -2 -13 10 -9 9 3 16 10 16 15 0 5 10 8 23 8 42 -1 202 11 272 21 305 45
449 114 488 236 9 27 21 96 27 154 7 58 13 107 16 109 4 5 7 -4 34 -104 64
-237 69 -266 71 -393 2 -87 13 -107 47 -85 22 13 28 35 8 27 -13 -5 -16 4 -18
57 -4 160 3 364 12 373 5 5 10 19 10 31 0 12 14 29 33 41 40 26 80 17 122 -26
26 -28 30 -39 33 -105 4 -72 -5 -123 -54 -315 -78 -300 -84 -329 -84 -396 0
-40 -7 -105 -15 -145 -8 -41 -13 -83 -11 -94 3 -11 5 -51 6 -90 2 -96 17 -55
22 58 1 48 6 87 9 87 4 0 7 17 7 38 1 45 18 152 37 235 8 33 11 65 8 70 -4 6
-1 7 7 2 10 -6 12 -3 8 13 -4 12 -2 25 3 28 5 3 9 18 9 33 0 15 5 32 12 39 7
7 9 12 5 12 -3 0 2 19 12 43 10 24 22 62 26 85 4 23 10 42 14 42 4 0 8 6 8 13
6 161 14 252 23 255 5 2 10 8 10 13 0 4 -8 5 -17 2 -17 -7 -17 -6 0 20 20 30
23 52 5 41 -7 -5 -9 -2 -5 8 3 9 -5 31 -17 49 -37 57 -76 171 -76 224 -1 28
-5 68 -10 90 -5 22 -14 63 -19 90 -10 46 -21 78 -57 162 -8 17 -14 37 -14 45
0 8 -4 18 -9 24 -5 5 -11 135 -13 289 -2 187 -7 287 -14 300 -19 33 -36 178
-43 380 -4 110 -12 198 -19 210 -6 11 -14 46 -17 77 -4 32 -11 60 -16 63 -5 4
-9 15 -9 27 0 21 -14 57 -60 153 -15 33 -38 81 -49 107 -12 26 -25 50 -31 53
-5 3 -10 13 -10 21 0 9 -13 34 -29 57 -15 23 -36 60 -45 82 -35 82 -49 104
-86 140 -22 21 -49 38 -64 38 -14 1 -26 6 -26 11 0 4 -9 6 -20 3 -10 -3 -25 2
-31 10 -7 8 -21 12 -30 10 -10 -3 -19 -1 -21 3 -2 5 -15 11 -30 14 -15 2 -37
14 -50 25 -12 12 -27 21 -34 21 -6 0 -15 7 -18 16 -3 8 -10 13 -15 10 -5 -4
-19 6 -31 21 -12 16 -19 21 -15 13 4 -8 -2 -5 -12 7 -21 25 -97 69 -88 51 4
-7 -1 -4 -9 6 -9 11 -16 16 -16 10 0 -5 -6 -2 -13 7 -13 16 -39 30 -72 36 -10
2 -22 7 -25 11 -3 4 -14 9 -25 10 -11 2 -25 8 -30 12 -6 5 -32 8 -58 8 -26 0
-54 6 -62 12 -8 6 -19 9 -24 6 -5 -4 -13 -1 -16 5 -4 5 -14 8 -22 5 -9 -4 -11
-2 -7 6 5 7 2 9 -8 5 -9 -3 -21 0 -27 6 -6 6 -11 7 -11 2 0 -4 -9 0 -20 10
-12 11 -28 15 -41 12 -12 -3 -32 -1 -43 6 -12 6 -34 12 -51 14 -63 5 -73 8
-69 15 3 4 -6 8 -20 8 -14 0 -28 5 -31 10 -3 6 -24 10 -45 10 -21 0 -42 5 -45
10 -8 13 -118 13 -132 -1z m268 -1236 c7 -7 22 -8 41 -2 17 4 35 6 41 2 5 -3
43 -5 83 -4 55 1 74 -2 74 -11 0 -10 2 -10 9 1 6 10 20 12 45 8 20 -3 38 -2
40 2 6 10 59 6 82 -7 11 -5 24 -11 29 -11 23 -4 61 -14 70 -20 6 -3 25 -6 43
-7 18 -1 40 -10 50 -21 14 -16 42 -33 62 -37 13 -3 70 -69 70 -81 0 -7 16 -27
35 -44 19 -17 34 -36 33 -43 -2 -7 3 -12 10 -10 7 1 18 -9 24 -23 6 -14 15
-25 20 -25 4 0 8 -6 8 -14 0 -8 4 -16 10 -18 5 -1 11 -15 12 -30 1 -16 6 -28
10 -28 4 0 8 -4 8 -10 0 -5 13 -38 28 -72 16 -35 32 -75 36 -90 3 -16 11 -28
16 -28 6 0 10 -9 10 -20 0 -11 4 -28 9 -38 25 -46 41 -92 41 -115 0 -14 5 -29
10 -32 6 -3 10 -15 10 -26 0 -10 5 -19 11 -19 5 0 8 -4 4 -9 -3 -5 -1 -12 5
-16 6 -4 8 -11 5 -16 -4 -5 7 -23 24 -40 17 -17 31 -37 31 -45 0 -8 4 -22 9
-32 53 -104 64 -134 50 -143 -27 -17 -130 -15 -169 4 -14 6 -47 30 -75 52 -27
23 -79 56 -115 73 -54 27 -75 31 -125 29 -33 -1 -65 -5 -70 -9 -6 -4 -17 -3
-25 2 -9 5 -19 5 -27 -1 -12 -11 -19 -12 -113 -25 -40 -5 -64 -15 -89 -36 -22
-19 -36 -26 -41 -19 -8 14 -70 -5 -70 -21 0 -6 -6 -8 -14 -5 -8 3 -16 1 -18
-5 -2 -6 -16 -10 -31 -10 -15 0 -30 -4 -33 -9 -3 -5 -15 -9 -26 -9 -12 0 -35
-4 -52 -10 -17 -5 -43 -12 -57 -15 -15 -2 -41 -18 -58 -34 -18 -17 -35 -30
-39 -31 -4 -1 -6 -8 -4 -16 2 -8 -2 -14 -8 -14 -5 0 -10 5 -10 10 0 6 -5 10
-11 10 -6 0 -9 -8 -7 -18 3 -12 -2 -24 -14 -31 -13 -8 -18 -19 -15 -32 4 -16
2 -19 -14 -14 -10 4 -19 2 -19 -3 0 -17 -42 -21 -57 -6 -8 8 -10 14 -5 14 6 0
5 17 -3 43 -7 23 -18 41 -24 40 -6 -2 -11 3 -11 11 0 8 -8 13 -17 11 -10 -1
-17 -9 -15 -16 2 -8 -9 -2 -23 14 -14 15 -34 27 -45 27 -12 0 -17 5 -14 14 6
15 -22 30 -37 20 -13 -7 -41 15 -33 27 5 8 0 10 -38 13 -28 2 -56 55 -60 113
-1 17 -6 29 -10 27 -4 -3 -8 2 -8 10 0 9 -4 16 -10 16 -5 0 -10 4 -10 10 0 5
7 7 15 4 11 -5 13 -2 9 10 -3 9 -10 13 -15 10 -5 -3 -7 5 -5 18 2 13 9 22 15
21 6 -2 11 2 11 7 0 6 -7 10 -16 10 -8 0 -12 5 -9 10 3 6 -1 13 -9 16 -18 7
-22 34 -5 34 7 0 9 9 6 21 -4 15 -2 19 9 15 8 -3 15 -1 15 4 3 20 4 25 11 36
9 14 -2 84 -14 84 -4 0 -2 13 7 30 8 16 15 32 14 35 -3 17 14 64 22 59 5 -3 9
-3 9 0 0 2 3 12 7 22 5 13 3 15 -8 9 -11 -6 -12 -5 -1 6 6 7 12 21 12 31 0 10
7 18 15 18 19 0 19 10 -1 38 -14 20 -12 26 8 23 5 0 5 15 2 35 -5 30 -3 36 9
31 9 -3 18 1 21 10 9 23 -4 36 -18 17 -9 -12 -15 -14 -20 -6 -12 20 3 30 35
25 21 -3 29 -1 24 6 -3 6 -14 11 -23 11 -14 0 -14 2 -3 9 8 5 11 16 8 25 -4 9
-2 16 3 16 5 0 12 11 16 25 3 14 10 25 14 25 5 0 11 8 14 18 9 25 72 92 80 84
4 -3 4 2 0 12 -5 13 -4 17 3 13 6 -4 13 -2 15 5 3 9 9 8 22 -4 16 -17 22 -17
61 -2 11 4 33 8 49 9 16 2 31 7 35 11 11 16 66 42 84 40 9 -1 22 -7 28 -13z
m1222 -1312 c37 -21 79 -110 84 -176 2 -27 8 -80 14 -116 18 -104 6 -337 -21
-424 -27 -86 -48 -110 -125 -145 -122 -55 -320 -79 -590 -70 -168 6 -199 14
-262 68 -32 28 -86 118 -122 202 -18 41 -38 86 -45 100 -19 34 -83 247 -91
302 -8 55 14 112 53 132 23 12 28 11 58 -19 31 -31 32 -35 27 -95 -4 -44 -2
-61 6 -56 7 5 11 -4 11 -24 0 -17 5 -40 11 -51 8 -16 7 -25 -8 -41 -13 -15
-15 -22 -5 -25 6 -3 12 -11 12 -19 0 -8 7 -15 15 -15 28 -3 33 -4 40 -11 4 -4
12 -5 19 -2 9 3 12 -6 10 -31 -2 -25 1 -35 11 -35 8 0 18 -8 24 -17 5 -10 11
-16 13 -14 2 2 23 -2 47 -9 25 -6 57 -9 73 -6 15 3 28 1 28 -4 0 -6 5 -10 11
-10 6 0 9 7 5 15 -4 11 1 15 19 15 19 0 25 5 25 21 0 12 4 17 11 13 7 -4 10 4
8 22 -2 16 0 30 4 31 4 1 15 9 23 18 9 8 21 15 27 16 7 0 21 2 32 5 11 2 36 6
55 8 19 2 52 7 72 11 20 4 44 2 54 -3 14 -8 21 -6 30 6 12 16 17 15 73 -5 57
-20 61 -20 61 -4 0 17 -73 91 -90 91 -5 0 -17 9 -27 19 -10 10 -37 29 -60 41
-24 12 -43 26 -43 30 0 4 -16 11 -35 14 -85 16 -168 76 -102 74 78 -2 222 -73
272 -134 42 -51 80 -63 45 -14 -12 17 -27 30 -34 30 -8 0 -24 16 -37 35 -13
19 -30 35 -38 35 -7 0 -24 11 -36 24 -12 12 -37 26 -56 30 -19 3 -47 13 -64
22 -16 8 -40 12 -52 9 -16 -4 -23 -1 -23 10 0 18 -11 19 -29 3 -11 -11 -12 -8
-6 12 9 29 24 50 36 50 5 0 6 -8 3 -17 -4 -12 4 -8 20 10 14 15 26 35 26 43 0
8 5 12 11 9 6 -4 8 -13 5 -21 -7 -17 20 -19 28 -1 3 9 8 7 16 -5 6 -9 17 -15
25 -12 9 4 18 -3 24 -17 5 -13 10 -18 10 -11 1 15 28 16 33 1 5 -14 98 -23 98
-9 0 7 5 8 13 3 6 -4 23 -8 37 -8 25 -1 51 -9 81 -25 10 -5 21 -4 27 2 8 8 19
8 38 -1 24 -10 26 -10 19 6 -4 10 -7 27 -7 37 1 11 -10 38 -24 62 -18 31 -21
43 -12 46 17 6 76 -10 111 -31z m-1910 -1394 c19 -7 24 -47 6 -47 -8 0 -8 -4
-2 -12 7 -9 5 -21 -6 -39 -45 -71 -61 -95 -69 -105 -6 -6 -17 -25 -26 -42 -20
-39 -59 -51 -85 -28 -15 14 -17 24 -10 59 12 67 13 71 25 84 6 6 15 32 18 57
4 25 14 52 22 60 8 8 14 19 14 24 0 11 25 10 36 -1 3 -3 13 1 22 10 13 13 17
13 26 1 6 -8 19 -17 29 -21z m673 -59 c1 -29 5 -65 9 -79 4 -16 2 -30 -4 -33
-6 -4 -11 -14 -11 -22 0 -18 -38 -53 -57 -54 -15 0 -28 43 -19 65 3 8 1 27 -5
42 -7 18 -6 28 0 33 7 4 8 17 1 39 -11 38 4 71 32 71 10 0 18 5 18 12 0 8 6 6
17 -4 10 -11 17 -36 19 -70z m-316 -4163 c0 -19 8 -56 18 -82 20 -50 16 -108
-8 -123 -17 -10 -3 -68 17 -72 13 -3 12 -7 -4 -27 -20 -25 -20 -25 0 -58 14
-24 17 -37 9 -45 -31 -31 -64 140 -57 297 3 55 5 110 5 123 0 12 5 22 10 22 6
0 10 -16 10 -35z"/>
<path d="M5932 6494 c-25 -11 -56 -114 -34 -114 10 0 11 -16 10 -165 -1 -16 4
-31 10 -33 8 -2 6 -11 -4 -27 -11 -17 -13 -29 -5 -42 6 -12 6 -25 0 -34 -11
-18 -11 -29 1 -29 5 0 12 17 16 38 4 20 9 41 12 47 3 5 7 16 7 25 1 8 5 26 9
39 5 14 4 21 -1 18 -5 -4 -10 0 -10 8 0 8 4 12 8 9 24 -15 65 177 50 234 -7
27 -38 38 -69 26z"/>
<path d="M4065 178 c-27 -5 -54 -16 -58 -24 -4 -8 -19 -14 -33 -14 -14 0 -43
-9 -65 -21 -22 -11 -92 -34 -156 -50 -63 -17 -129 -39 -146 -50 l-32 -19 203
0 204 0 -7 30 c-5 23 -3 30 9 30 8 0 22 -13 31 -30 l16 -30 108 0 109 0 -1 44
c-2 49 4 61 28 53 10 -5 15 -20 15 -52 l0 -45 120 0 c100 0 120 3 120 15 0 8
9 15 20 15 11 0 20 -7 20 -15 0 -13 20 -15 128 -14 l127 1 -92 43 c-125 60
-257 103 -345 115 -40 5 -100 14 -133 20 -71 12 -121 11 -190 -2z"/>
</g>
</svg>
